<svg width="512" height="512" viewBox="0 0 512 512" fill="none" xmlns="http://www.w3.org/2000/svg">
<rect width="512" height="512" fill="white"/>
<rect x="12" y="12" width="500" height="500" rx="15" fill="#F1B5F4"/>
<rect width="500" height="500" rx="15" fill="#882F8D"/>
<rect x="44" y="55" width="110" height="40" fill="#F092F5"/>
<path d="M44 125H394V185H44V125Z" fill="#F5C431"/>
<rect x="44" y="215" width="412" height="140" fill="#F092F5"/>
<path fill-rule="evenodd" clip-rule="evenodd" d="M44 406.429V385H57.8889V392.2H50.5625V406.429H44ZM96.7778 385H69V392.2H96.7778V385ZM107.889 385V392.2H135.667V385H107.889ZM146.778 385V392.2H174.556V385H146.778ZM185.667 385V392.2H213.444V385H185.667ZM224.556 385V392.2L243.724 392.2L246.997 385H224.556ZM271.823 385L269.029 392.2L291.222 392.2V385H271.823ZM302.333 385V392.2H330.111V385H302.333ZM341.222 385V392.2H369V385H341.222ZM380.111 385V392.2H387.438V406.429H394V385H380.111ZM394 423.571H387.438V437.8H380.111V445H394V423.571ZM369 445V437.8H341.222V445H369ZM330.111 445V437.8H302.333V445H330.111ZM291.222 445V437.8H263.444V445H291.222ZM252.333 445V437.8H224.556V445H252.333ZM213.444 445V437.8H185.667V445H213.444ZM174.556 445V437.8H146.778V445H174.556ZM135.667 445V437.8H107.889V445H135.667ZM96.7778 445V437.8H69V445H96.7778ZM57.8889 445V437.8H50.5625V423.571H44V445H57.8889Z" fill="#F5C431"/>
<path d="M243.678 399.342C242.631 400.967 243.099 403.133 244.724 404.18C246.348 405.227 248.515 404.759 249.562 403.135L243.678 399.342ZM249.562 403.134C250.609 401.51 250.141 399.343 248.517 398.296C246.892 397.249 244.726 397.717 243.679 399.342L249.562 403.134ZM249.562 403.135L249.562 403.134L243.679 399.342L243.678 399.342L249.562 403.135ZM246.627 401.227L252.527 404.994L252.532 404.986L246.627 401.227ZM246.621 401.238L252.499 405.039L252.51 405.022L252.521 405.005L246.621 401.238ZM246.673 401.155L252.605 404.871L252.605 404.871L246.673 401.155ZM246.883 400.813L240.897 397.184L240.897 397.184L246.883 400.813ZM247.738 399.348L253.832 402.792L247.738 399.348ZM250.861 393.331L244.555 390.292L250.861 393.331ZM260.148 369.321L253.46 367.254L253.46 367.254L260.148 369.321ZM270.047 276.175L263.061 276.623L263.061 276.623L270.047 276.175ZM250.721 192.236L257.155 189.48L254.003 182.119L247.129 186.228L250.721 192.236ZM232.787 202.956L225.787 203.061L225.971 215.184L236.378 208.964L232.787 202.956ZM232 151L235.408 144.886L224.818 138.983L225.001 151.106L232 151ZM277.388 176.297L280.98 182.305L291.387 176.085L280.796 170.182L277.388 176.297ZM258.513 187.579L254.922 181.57L249.641 184.727L252.093 190.369L258.513 187.579ZM279.028 275.6L286.014 275.153L279.028 275.6ZM268.746 371.978L275.434 374.045L275.434 374.045L268.746 371.978ZM258.968 397.239L265.274 400.278L265.274 400.278L258.968 397.239ZM255.573 403.777L261.667 407.221L261.667 407.221L255.573 403.777ZM254.579 405.479L248.593 401.85L248.593 401.85L254.579 405.479ZM254.3 405.933L248.368 402.217L248.368 402.217L254.3 405.933ZM254.219 406.06L260.118 409.829L260.124 409.819L254.219 406.06ZM254.195 406.099L260.083 409.884L260.088 409.876L260.094 409.868L254.195 406.099ZM254.187 406.112L260.07 409.905L260.075 409.897L254.187 406.112ZM254.183 406.117L260.064 409.913L260.067 409.91L254.183 406.117ZM254.181 406.12L260.059 409.922L263.86 404.044L257.982 400.242L254.181 406.12ZM251.737 409.899L247.936 415.777L253.814 419.578L257.615 413.7L251.737 409.899ZM244.18 405.012L238.302 401.211L234.501 407.089L240.379 410.89L244.18 405.012ZM252.512 405.019C254.599 401.765 253.654 397.435 250.4 395.347C247.147 393.259 242.816 394.204 240.729 397.458L252.512 405.019ZM252.505 405.029C254.599 401.779 253.661 397.447 250.411 395.353C247.161 393.26 242.829 394.197 240.736 397.447L252.505 405.029ZM240.727 397.46L240.721 397.471L252.521 405.005L252.527 404.994L240.727 397.46ZM240.741 397.438C240.728 397.459 240.722 397.469 240.722 397.468L252.532 404.986C252.55 404.959 252.574 404.921 252.605 404.871L240.741 397.438ZM240.897 397.184C240.82 397.312 240.767 397.397 240.741 397.438L252.605 404.871C252.667 404.772 252.755 404.629 252.869 404.442L240.897 397.184ZM241.644 395.903C241.306 396.501 241.052 396.929 240.897 397.184L252.869 404.442C253.096 404.068 253.422 403.517 253.832 402.792L241.644 395.903ZM244.555 390.292C243.332 392.831 242.321 394.707 241.644 395.903L253.832 402.792C254.651 401.343 255.805 399.197 257.167 396.371L244.555 390.292ZM253.46 367.254C250.296 377.491 247.002 385.215 244.555 390.292L257.167 396.371C259.891 390.718 263.449 382.346 266.836 371.388L253.46 367.254ZM263.061 276.623C265.6 316.252 259.781 346.799 253.46 367.254L266.836 371.388C273.609 349.468 279.69 317.217 277.033 275.728L263.061 276.623ZM244.286 194.992C252.645 214.509 260.83 241.786 263.061 276.623L277.033 275.728C274.69 239.147 266.078 210.313 257.155 189.48L244.286 194.992ZM236.378 208.964L254.312 198.245L247.129 186.228L229.195 196.947L236.378 208.964ZM225.001 151.106L225.787 203.061L239.786 202.85L239 150.894L225.001 151.106ZM280.796 170.182L235.408 144.886L228.592 157.114L273.98 182.411L280.796 170.182ZM262.105 193.587L280.98 182.305L273.797 170.288L254.922 181.57L262.105 193.587ZM286.014 275.153C283.556 236.775 274.394 206.554 264.933 184.788L252.093 190.369C260.977 210.805 269.698 239.446 272.043 276.047L286.014 275.153ZM275.434 374.045C282.499 351.184 288.748 317.837 286.014 275.153L272.043 276.047C274.658 316.872 268.671 348.515 262.058 369.912L275.434 374.045ZM265.274 400.278C268.176 394.256 271.905 385.466 275.434 374.045L262.058 369.912C258.752 380.612 255.288 388.753 252.663 394.2L265.274 400.278ZM261.667 407.221C262.578 405.609 263.823 403.289 265.274 400.278L252.663 394.2C251.35 396.923 250.247 398.973 249.479 400.332L261.667 407.221ZM260.565 409.108C260.838 408.657 261.211 408.028 261.667 407.221L249.479 400.332C249.095 401.011 248.795 401.518 248.593 401.85L260.565 409.108ZM260.232 409.649C260.317 409.514 260.429 409.333 260.565 409.108L248.593 401.85C248.493 402.016 248.417 402.138 248.368 402.217L260.232 409.649ZM260.124 409.819C260.153 409.774 260.189 409.717 260.232 409.649L248.368 402.217C248.343 402.256 248.325 402.284 248.315 402.301L260.124 409.819ZM260.094 409.868L260.118 409.829L248.321 402.291L248.296 402.33L260.094 409.868ZM260.075 409.897L260.083 409.884L248.306 402.314L248.298 402.327L260.075 409.897ZM260.067 409.91L260.07 409.905L248.303 402.319L248.3 402.324L260.067 409.91ZM246.601 409.555C248.49 410.776 249.439 411.39 249.917 411.698C250.151 411.848 250.287 411.936 250.368 411.987C250.388 412 250.475 412.056 250.571 412.113C250.6 412.131 250.659 412.166 250.734 412.208C250.785 412.237 250.964 412.338 251.202 412.45C251.321 412.506 251.557 412.614 251.865 412.722C252.115 412.81 252.776 413.03 253.656 413.097C254.638 413.171 256.289 413.077 257.95 412.017C258.719 411.526 259.253 410.974 259.595 410.557C259.759 410.356 259.881 410.185 259.953 410.08C259.982 410.038 260.023 409.976 260.037 409.955C260.051 409.934 260.064 409.913 260.064 409.913L248.303 402.32C248.205 402.471 248.946 401.155 250.417 400.216C252.078 399.156 253.729 399.063 254.71 399.137C255.59 399.203 256.251 399.424 256.5 399.511C256.808 399.619 257.044 399.727 257.162 399.782C257.399 399.894 257.577 399.994 257.626 400.022C257.698 400.063 257.754 400.097 257.78 400.112C257.861 400.16 257.919 400.198 257.879 400.173C257.841 400.148 257.74 400.084 257.502 399.93C257.034 399.629 256.093 399.021 254.203 397.799L246.601 409.555ZM257.982 400.242L254.203 397.799L246.601 409.555L250.38 411.998L257.982 400.242ZM257.615 413.7L260.059 409.922L248.303 402.319L245.859 406.098L257.615 413.7ZM240.379 410.89L247.936 415.777L255.538 404.021L247.981 399.134L240.379 410.89ZM240.743 397.437L238.302 401.211L250.058 408.813L252.499 405.039L240.743 397.437ZM240.729 397.458C240.729 397.457 240.73 397.457 240.73 397.456C240.73 397.456 240.73 397.455 240.731 397.455C240.731 397.455 240.731 397.455 240.731 397.455C240.731 397.455 240.731 397.454 240.731 397.454C240.731 397.454 240.731 397.454 240.731 397.454C240.731 397.454 240.732 397.453 240.732 397.453C240.732 397.453 240.733 397.452 240.733 397.452C240.733 397.451 240.735 397.448 240.736 397.447C240.75 397.424 250.424 395.363 252.516 405.011C252.514 405.015 252.512 405.019 252.511 405.02C252.51 405.021 252.51 405.022 252.51 405.022C252.51 405.022 252.509 405.022 252.509 405.022C252.509 405.022 252.509 405.023 252.509 405.023C252.509 405.023 252.509 405.023 252.509 405.023C252.508 405.024 252.508 405.024 252.508 405.024C252.507 405.026 252.506 405.027 252.505 405.029L240.736 397.447C240.734 397.449 240.733 397.451 240.732 397.453C240.732 397.454 240.731 397.454 240.731 397.454C240.731 397.454 240.731 397.454 240.731 397.455C240.731 397.455 240.731 397.455 240.73 397.455C240.73 397.455 240.73 397.456 240.73 397.456C240.73 397.456 240.73 397.457 240.729 397.458C240.728 397.459 240.726 397.463 240.724 397.466C242.815 407.115 252.489 405.053 252.504 405.031C252.505 405.029 252.507 405.027 252.507 405.026C252.507 405.025 252.508 405.025 252.508 405.025C252.508 405.024 252.508 405.023 252.508 405.023C252.509 405.023 252.509 405.023 252.509 405.023C252.509 405.023 252.509 405.023 252.509 405.023C252.509 405.023 252.509 405.022 252.509 405.022C252.509 405.022 252.51 405.022 252.51 405.022C252.51 405.021 252.511 405.02 252.512 405.019L240.729 397.458Z" fill="#882F8D" mask="url(#path-7-outside-1_342_114)"/>
<path fill-rule="evenodd" clip-rule="evenodd" d="M246.621 401.238L246.627 401.227C246.636 401.214 246.651 401.19 246.673 401.155C246.717 401.085 246.788 400.971 246.883 400.813C247.074 400.498 247.364 400.009 247.738 399.348C248.486 398.025 249.568 396.014 250.861 393.331C253.447 387.967 256.873 379.918 260.148 369.321C266.695 348.134 272.645 316.734 270.047 276.175C267.76 240.466 259.362 212.411 250.721 192.236L232.787 202.956L232 151L277.388 176.297L258.513 187.579C267.686 208.679 276.627 238.111 279.028 275.6C281.703 317.354 275.585 349.85 268.746 371.978C265.328 383.039 261.732 391.505 258.968 397.239C257.587 400.106 256.413 402.291 255.573 403.777C255.153 404.519 254.816 405.088 254.579 405.479C254.461 405.675 254.367 405.826 254.3 405.933C254.266 405.987 254.239 406.029 254.219 406.06L254.195 406.099L254.187 406.112L254.183 406.117C254.182 406.119 254.181 406.12 250.402 403.677L254.181 406.12L251.737 409.899L244.18 405.012L246.621 401.238ZM246.62 401.238C246.62 401.239 246.62 401.239 246.62 401.238Z" fill="#1FDDFF"/>
</svg>
